<?xml version="1.0" encoding="utf-8"?>
<!-- Generator: Adobe Illustrator 23.1.1, SVG Export Plug-In . SVG Version: 6.00 Build 0)  -->
<svg version="1.0" id="レイヤー_1" xmlns="http://www.w3.org/2000/svg" xmlns:xlink="http://www.w3.org/1999/xlink" x="0px"
	 y="0px" width="288.89px" height="80px" viewBox="0 0 288.89 80" enable-background="new 0 0 288.89 80" xml:space="preserve">
<g>
	<path fill="#3A86BD" d="M115.16,31.98c-2.71-3.4-7.95-6.91-13.65-7.26v-0.03h-0.92h-5.2h-0.92v0.03
		c-5.67,0.31-10.62,3.48-13.65,7.26v-7.3h-6.68v54.22h6.68V50.59c0-12.06,7.8-19.52,15.02-19.52h4.31c7.22,0,13.84,7.46,13.84,19.52
		v28.31h6.68c0,0,0-18.7,0-26.06S119.33,36.15,115.16,31.98z"/>
	<g>
		<path fill="#3A86BD" d="M54.16,78.91h6.68V50.59c0-12.06,0-18.61,0-18.61v-7.3h-6.68V78.91z"/>
		<path fill="#3A86BD" d="M54.16,11.78v6.68h6.68v-3.49c0-1.49,0-2.29,0-2.29v-0.9H54.16z"/>
	</g>
	<path fill="#3A86BD" d="M283.39,31.98c-2.71-3.4-7.95-6.91-13.65-7.26v-0.03h-0.92h-5.2h-0.92v0.03
		c-5.67,0.31-10.62,3.48-13.65,7.26v-7.3h-6.68v54.22h6.68V50.59c0-12.06,7.8-19.52,15.02-19.52h4.31c7.22,0,13.84,7.46,13.84,19.52
		v28.31h6.68c0,0,0-18.7,0-26.06S287.56,36.15,283.39,31.98z"/>
	<path fill="#3A86BD" d="M26.27,47.07c2.25-2.08,4.01-4.83,5.62-7.32c0.4-0.62,0.79-1.22,1.17-1.79l8.97-13.27h-8.07l-6.6,9.6
		c-5.36,7.9-8.39,12.02-13.23,12.02H6.68V0H0v78.91h6.68V52.69h13.68c7.96,0,12.12,5.76,12.12,11.44v14.77h6.68V63.92
		C39.16,53.8,33.07,48.4,26.27,47.07z"/>
	<path fill="#3A86BD" d="M157.89,47.07c2.25-2.08,4.01-4.83,5.62-7.32c0.4-0.62,0.79-1.22,1.17-1.79l8.97-13.27h-8.07l-6.6,9.6
		c-5.36,7.9-8.39,12.02-13.23,12.02h-7.45V0h-6.68v78.91h6.68V52.69h13.68c7.96,0,12.12,5.76,12.12,11.44v14.77h6.68V63.92
		C170.78,53.8,164.69,48.4,157.89,47.07z"/>
	<path fill="#3A86BD" d="M204.49,23.59c-15.35,0-26.92,12.13-26.92,28.21c0,16.08,11.57,28.2,26.92,28.2
		c6.73,0,11.51-2.58,14.7-4.86v-7.8c-4.56,4.39-9.02,6.28-14.7,6.28c-9.67,0-20.03-8.77-20.03-21.82
		c0-13.05,10.36-21.82,20.03-21.82c12.67,0,20.24,11.1,20.24,21.82v27.11h6.68V51.8C231.41,35.72,219.83,23.59,204.49,23.59z"/>
</g>
<g>
</g>
<g>
</g>
<g>
</g>
<g>
</g>
<g>
</g>
<g>
</g>
</svg>
